<svg width="512" height="512" viewBox="0 0 512 512" fill="none" xmlns="http://www.w3.org/2000/svg">
<g clip-path="url(#clip0_1_189)">
<rect width="512" height="512" fill="white"/>
<path d="M286.241 129.746C289.21 124.692 288.626 121.848 289.784 118.976C290.496 117.212 292.829 117.124 293.834 118.738C296.648 123.26 296.845 129.781 293.013 135.913C289.481 141.566 283.776 142.864 279.614 143.114C277.729 143.226 276.289 141.533 277.394 140.001C279.36 137.276 283.36 134.65 286.241 129.746Z" fill="#FA9955"/>
<path d="M218.297 127.634C216.509 117.496 221.013 111.823 225.477 108.224C227.149 106.876 229.354 108.568 228.995 110.685C228.606 112.984 228.439 115.739 228.954 118.656C230.168 125.541 245.311 135.398 246.311 141.067C246.907 144.448 245.872 149.155 243.942 153.024C242.917 155.079 239.275 153.514 238.889 151.25C238.874 151.167 238.86 151.082 238.845 150.997C237.872 145.478 220.844 142.078 218.297 127.634Z" fill="#FA9955"/>
<path d="M306.692 138.366C308.809 135.866 312.747 136.177 313.811 139.276C314.721 141.928 315.501 145.171 315.501 148.5C315.5 155.871 311.089 159.859 317.348 167.711C318.416 169.05 320.23 169.517 321.859 168.989C337.601 163.885 349.732 155.305 352.001 148.5C355.068 139.298 365.421 159.644 356.291 177.569H264.49C263.967 177.082 263.438 176.595 262.899 176.11C261.12 174.51 258.395 174.617 256.783 176.385C256.428 176.774 256.075 177.169 255.723 177.569H159.933C152.546 163.034 145.975 145.776 151.501 148.5C160.557 152.966 179.001 174.772 194.063 174.773C201.6 174.772 202.173 170.228 206.501 166.5C215.642 158.625 189.336 145.503 187.907 140.419C187.614 139.375 189.086 139.097 190.153 139.29C195.776 140.307 214.193 143.9 221.001 148.5C226.232 152.035 234.762 159.93 240.123 165.054C242.481 167.307 246.394 166.515 247.65 163.505L255.017 145.848C256.464 142.38 261.084 142.114 262.842 145.436C267.392 154.031 271.783 161.08 283.913 159.04C284.132 159.003 284.357 158.945 284.568 158.874L285.258 158.643C294.23 152.294 302.089 143.803 306.692 138.366Z" fill="url(#paint0_linear_1_189)"/>
<path d="M240.869 310.402C252.048 320.634 269.243 320.457 280.209 309.997L306.655 284.768L380.935 353.395C375.677 356.934 369.347 359 362.533 359H149C143.119 359 137.599 357.46 132.817 354.764L210.709 282.798L240.869 310.402ZM200.346 273.312L122.312 345.409C118.343 339.962 116 333.255 116 326V219.803C116 212.946 118.091 206.578 121.67 201.302L200.346 273.312ZM391.444 203.884C394.049 208.604 395.533 214.03 395.533 219.803V326C395.533 332.344 393.741 338.269 390.638 343.3L316.805 275.085L391.444 203.884ZM362.533 186.803C369.916 186.803 376.733 189.227 382.23 193.323L270.546 299.867C264.909 305.245 256.068 305.335 250.321 300.075L131.826 191.618C136.829 188.563 142.709 186.803 149 186.803H362.533Z" fill="url(#paint1_linear_1_189)"/>
</g>
<defs>
<linearGradient id="paint0_linear_1_189" x1="258.191" y1="121.924" x2="258.191" y2="311.992" gradientUnits="userSpaceOnUse">
<stop stop-color="#FAA057"/>
<stop offset="1" stop-color="#F03838"/>
</linearGradient>
<linearGradient id="paint1_linear_1_189" x1="255.767" y1="186.803" x2="255.767" y2="359" gradientUnits="userSpaceOnUse">
<stop stop-color="#7293FF"/>
<stop offset="1" stop-color="#2C3EFF"/>
</linearGradient>
<clipPath id="clip0_1_189">
<rect width="512" height="512" rx="256" fill="white"/>
</clipPath>
</defs>
</svg>
